<svg width="398" height="104" viewBox="0 0 398 104" fill="none" xmlns="http://www.w3.org/2000/svg">
<path d="M0.28349 101.08C0.114431 102.038 0.851451 102.916 1.82429 102.916L371.001 102.907C371.76 102.907 372.763 102.36 372.895 101.613L375.072 88.8246C375.241 87.8666 374.151 86.9899 373.179 86.99L4.00062 86.9988C3.24153 86.9989 2.59201 87.5439 2.46009 88.2914L0.28349 101.08Z" fill="white"/>
<path d="M0.28349 101.08C0.114431 102.038 0.851451 102.916 1.82429 102.916L371.001 102.907C371.76 102.907 372.763 102.36 372.895 101.613L375.072 88.8246C375.241 87.8666 374.151 86.9899 373.179 86.99L4.00062 86.9988C3.24153 86.9989 2.59201 87.5439 2.46009 88.2914L0.28349 101.08Z" fill="url(#paint0_linear_972_1616)"/>
<path d="M30.5049 55.092C30.3364 56.0497 31.0733 56.9275 32.0457 56.9275L50.3832 56.9275C51.3572 56.9275 52.0945 57.8081 51.9233 58.767L49.3881 72.9638C49.2549 73.71 48.6059 74.2533 47.848 74.2533L6.05823 74.2533C5.0854 74.2533 4.34845 73.3748 4.5176 72.4168L16.8564 2.53002C16.9883 1.78248 17.6379 1.23756 18.397 1.23756L38.1156 1.23756C39.088 1.23756 39.8249 2.11535 39.6564 3.07309L30.5049 55.092Z" fill="white"/>
<path d="M30.5049 55.092C30.3364 56.0497 31.0733 56.9275 32.0457 56.9275L50.3832 56.9275C51.3572 56.9275 52.0945 57.8081 51.9233 58.767L49.3881 72.9638C49.2549 73.71 48.6059 74.2533 47.848 74.2533L6.05823 74.2533C5.0854 74.2533 4.34845 73.3748 4.5176 72.4168L16.8564 2.53002C16.9883 1.78248 17.6379 1.23756 18.397 1.23756L38.1156 1.23756C39.088 1.23756 39.8249 2.11535 39.6564 3.07309L30.5049 55.092Z" fill="url(#paint1_linear_972_1616)" fill-opacity="0.32"/>
<path d="M88.5513 1.23756C89.5242 1.23756 90.2611 2.11601 90.092 3.07403L77.7532 72.9608C77.6212 73.7084 76.9717 74.2533 76.2126 74.2533L56.4951 74.2533C55.5223 74.2533 54.7853 73.3748 54.9545 72.4168L67.2932 2.53002C67.4252 1.78248 68.0748 1.23756 68.8339 1.23756L88.5513 1.23756Z" fill="white"/>
<path d="M88.5513 1.23756C89.5242 1.23756 90.2611 2.11601 90.092 3.07403L77.7532 72.9608C77.6212 73.7084 76.9717 74.2533 76.2126 74.2533L56.4951 74.2533C55.5223 74.2533 54.7853 73.3748 54.9545 72.4168L67.2932 2.53002C67.4252 1.78248 68.0748 1.23756 68.8339 1.23756L88.5513 1.23756Z" fill="url(#paint2_linear_972_1616)" fill-opacity="0.32"/>
<path d="M146.069 1.23756C147.042 1.23756 147.778 2.11557 147.61 3.0734L144.964 18.0953C144.832 18.8431 144.182 19.3884 143.423 19.3884L117.223 19.3884C116.462 19.3884 115.811 19.9358 115.681 20.6854L114.471 27.6632C114.305 28.6198 115.041 29.4951 116.012 29.4951L132.908 29.4951C133.883 29.4951 134.62 30.3768 134.448 31.3361L131.916 45.4298C131.782 46.1752 131.134 46.7177 130.376 46.7177L112.372 46.7177C111.613 46.7177 110.963 47.263 110.831 48.0109L106.44 72.9601C106.308 73.7079 105.658 74.2533 104.899 74.2533L85.182 74.2533C84.2092 74.2533 83.4722 73.3748 83.6414 72.4168L95.9801 2.53002C96.1121 1.78248 96.7617 1.23756 97.5208 1.23756L146.069 1.23756Z" fill="white"/>
<path d="M146.069 1.23756C147.042 1.23756 147.778 2.11557 147.61 3.0734L144.964 18.0953C144.832 18.8431 144.182 19.3884 143.423 19.3884L117.223 19.3884C116.462 19.3884 115.811 19.9358 115.681 20.6854L114.471 27.6632C114.305 28.6198 115.041 29.4951 116.012 29.4951L132.908 29.4951C133.883 29.4951 134.62 30.3768 134.448 31.3361L131.916 45.4298C131.782 46.1752 131.134 46.7177 130.376 46.7177L112.372 46.7177C111.613 46.7177 110.963 47.263 110.831 48.0109L106.44 72.9601C106.308 73.7079 105.658 74.2533 104.899 74.2533L85.182 74.2533C84.2092 74.2533 83.4722 73.3748 83.6414 72.4168L95.9801 2.53002C96.1121 1.78248 96.7617 1.23756 97.5208 1.23756L146.069 1.23756Z" fill="url(#paint3_linear_972_1616)" fill-opacity="0.32"/>
<path d="M207.394 1.23756C208.367 1.23756 209.104 2.11557 208.935 3.07341L206.289 18.0953C206.158 18.8431 205.508 19.3884 204.748 19.3884L187.985 19.3884C187.226 19.3884 186.577 19.9332 186.445 20.6806L177.207 72.961C177.075 73.7085 176.426 74.2533 175.667 74.2533L155.949 74.2533C154.976 74.2533 154.239 73.3747 154.409 72.4166L163.454 21.225C163.623 20.267 162.886 19.3884 161.913 19.3884L141.437 19.3884C140.465 19.3884 139.728 18.5103 139.897 17.5525L142.543 2.53064C142.674 1.78281 143.324 1.23756 144.083 1.23756L207.394 1.23756Z" fill="white"/>
<path d="M207.394 1.23756C208.367 1.23756 209.104 2.11557 208.935 3.07341L206.289 18.0953C206.158 18.8431 205.508 19.3884 204.748 19.3884L187.985 19.3884C187.226 19.3884 186.577 19.9332 186.445 20.6806L177.207 72.961C177.075 73.7085 176.426 74.2533 175.667 74.2533L155.949 74.2533C154.976 74.2533 154.239 73.3747 154.409 72.4166L163.454 21.225C163.623 20.267 162.886 19.3884 161.913 19.3884L141.437 19.3884C140.465 19.3884 139.728 18.5103 139.897 17.5525L142.543 2.53064C142.674 1.78281 143.324 1.23756 144.083 1.23756L207.394 1.23756Z" fill="url(#paint4_linear_972_1616)" fill-opacity="0.32"/>
<path d="M234.753 74.9752C228.565 74.9752 223.134 73.7033 218.459 71.1594C213.784 68.6155 210.174 65.0404 207.63 60.4339C205.086 55.7587 203.814 50.4304 203.814 44.4488C203.814 35.7172 205.602 28.0169 209.177 21.3478C212.821 14.61 217.874 9.38479 224.337 5.67213C230.869 1.89071 238.363 0 246.819 0C253.145 0 258.645 1.27193 263.32 3.81579C268.064 6.2909 271.708 9.83168 274.252 14.4381C276.796 18.9758 278.068 24.2354 278.068 30.217C278.068 38.8798 276.246 46.6146 272.602 53.4211C269.027 60.2277 263.939 65.5217 257.339 69.3031C250.807 73.0845 243.279 74.9752 234.753 74.9752ZM238.26 53.6274C241.835 53.6274 244.929 52.6992 247.541 50.8429C250.223 48.9178 252.251 46.4083 253.626 43.3144C255.001 40.1518 255.689 36.7485 255.689 33.1046C255.689 29.3232 254.657 26.4012 252.595 24.3386C250.601 22.2072 247.713 21.1416 243.932 21.1416C240.357 21.1416 237.228 22.0697 234.547 23.9261C231.866 25.7824 229.803 28.2919 228.359 31.4545C226.984 34.5484 226.297 37.9173 226.297 41.5612C226.297 45.3426 227.294 48.299 229.287 50.4304C231.35 52.5617 234.341 53.6274 238.26 53.6274Z" fill="white"/>
<path d="M234.753 74.9752C228.565 74.9752 223.134 73.7033 218.459 71.1594C213.784 68.6155 210.174 65.0404 207.63 60.4339C205.086 55.7587 203.814 50.4304 203.814 44.4488C203.814 35.7172 205.602 28.0169 209.177 21.3478C212.821 14.61 217.874 9.38479 224.337 5.67213C230.869 1.89071 238.363 0 246.819 0C253.145 0 258.645 1.27193 263.32 3.81579C268.064 6.2909 271.708 9.83168 274.252 14.4381C276.796 18.9758 278.068 24.2354 278.068 30.217C278.068 38.8798 276.246 46.6146 272.602 53.4211C269.027 60.2277 263.939 65.5217 257.339 69.3031C250.807 73.0845 243.279 74.9752 234.753 74.9752ZM238.26 53.6274C241.835 53.6274 244.929 52.6992 247.541 50.8429C250.223 48.9178 252.251 46.4083 253.626 43.3144C255.001 40.1518 255.689 36.7485 255.689 33.1046C255.689 29.3232 254.657 26.4012 252.595 24.3386C250.601 22.2072 247.713 21.1416 243.932 21.1416C240.357 21.1416 237.228 22.0697 234.547 23.9261C231.866 25.7824 229.803 28.2919 228.359 31.4545C226.984 34.5484 226.297 37.9173 226.297 41.5612C226.297 45.3426 227.294 48.299 229.287 50.4304C231.35 52.5617 234.341 53.6274 238.26 53.6274Z" fill="url(#paint5_linear_972_1616)" fill-opacity="0.32"/>
<path d="M339.225 1.23756C340.197 1.23756 340.934 2.11557 340.765 3.0734L338.119 18.0953C337.988 18.8431 337.338 19.3884 336.579 19.3884L310.538 19.3884C309.777 19.3884 309.127 19.9358 308.997 20.6854L307.786 27.6632C307.62 28.6198 308.357 29.4951 309.328 29.4951L326.224 29.4951C327.199 29.4951 327.936 30.3768 327.764 31.3361L325.232 45.4298C325.098 46.1752 324.449 46.7177 323.692 46.7177L305.688 46.7177C304.928 46.7177 304.279 47.263 304.147 48.0109L299.755 72.9601C299.623 73.7079 298.974 74.2533 298.214 74.2533L278.498 74.2533C277.525 74.2533 276.788 73.3748 276.957 72.4168L289.296 2.53002C289.428 1.78248 290.077 1.23756 290.836 1.23756L339.225 1.23756Z" fill="white"/>
<path d="M339.225 1.23756C340.197 1.23756 340.934 2.11557 340.765 3.0734L338.119 18.0953C337.988 18.8431 337.338 19.3884 336.579 19.3884L310.538 19.3884C309.777 19.3884 309.127 19.9358 308.997 20.6854L307.786 27.6632C307.62 28.6198 308.357 29.4951 309.328 29.4951L326.224 29.4951C327.199 29.4951 327.936 30.3768 327.764 31.3361L325.232 45.4298C325.098 46.1752 324.449 46.7177 323.692 46.7177L305.688 46.7177C304.928 46.7177 304.279 47.263 304.147 48.0109L299.755 72.9601C299.623 73.7079 298.974 74.2533 298.214 74.2533L278.498 74.2533C277.525 74.2533 276.788 73.3748 276.957 72.4168L289.296 2.53002C289.428 1.78248 290.077 1.23756 290.836 1.23756L339.225 1.23756Z" fill="url(#paint6_linear_972_1616)" fill-opacity="0.32"/>
<path d="M396.186 1.23756C397.159 1.23756 397.896 2.11557 397.727 3.0734L395.081 18.0953C394.949 18.8431 394.3 19.3884 393.54 19.3884L367.5 19.3884C366.739 19.3884 366.088 19.9358 365.958 20.6854L364.748 27.6632C364.582 28.6198 365.318 29.4951 366.289 29.4951L383.186 29.4951C384.16 29.4951 384.898 30.3768 384.725 31.3361L382.194 45.4298C382.06 46.1752 381.411 46.7177 380.654 46.7177L362.649 46.7177C361.89 46.7177 361.24 47.263 361.109 48.0109L356.717 72.9601C356.585 73.7079 355.935 74.2533 355.176 74.2533L335.459 74.2533C334.486 74.2533 333.749 73.3748 333.919 72.4168L346.257 2.53002C346.389 1.78248 347.039 1.23756 347.798 1.23756L396.186 1.23756Z" fill="white"/>
<path d="M396.186 1.23756C397.159 1.23756 397.896 2.11557 397.727 3.0734L395.081 18.0953C394.949 18.8431 394.3 19.3884 393.54 19.3884L367.5 19.3884C366.739 19.3884 366.088 19.9358 365.958 20.6854L364.748 27.6632C364.582 28.6198 365.318 29.4951 366.289 29.4951L383.186 29.4951C384.16 29.4951 384.898 30.3768 384.725 31.3361L382.194 45.4298C382.06 46.1752 381.411 46.7177 380.654 46.7177L362.649 46.7177C361.89 46.7177 361.24 47.263 361.109 48.0109L356.717 72.9601C356.585 73.7079 355.935 74.2533 355.176 74.2533L335.459 74.2533C334.486 74.2533 333.749 73.3748 333.919 72.4168L346.257 2.53002C346.389 1.78248 347.039 1.23756 347.798 1.23756L396.186 1.23756Z" fill="url(#paint7_linear_972_1616)" fill-opacity="0.32"/>
<defs>
<linearGradient id="paint0_linear_972_1616" x1="-6.71734e-07" y1="105.5" x2="371.5" y2="104.5" gradientUnits="userSpaceOnUse">
<stop stop-color="#FC4680"/>
<stop offset="1" stop-color="#FF625C"/>
</linearGradient>
<linearGradient id="paint1_linear_972_1616" x1="188.963" y1="-53.7198" x2="188.963" y2="75.5134" gradientUnits="userSpaceOnUse">
<stop stop-opacity="0"/>
<stop offset="1" stop-color="#A155EE"/>
</linearGradient>
<linearGradient id="paint2_linear_972_1616" x1="188.963" y1="-53.7198" x2="188.963" y2="75.5134" gradientUnits="userSpaceOnUse">
<stop stop-opacity="0"/>
<stop offset="1" stop-color="#A155EE"/>
</linearGradient>
<linearGradient id="paint3_linear_972_1616" x1="188.963" y1="-53.7198" x2="188.963" y2="75.5134" gradientUnits="userSpaceOnUse">
<stop stop-opacity="0"/>
<stop offset="1" stop-color="#A155EE"/>
</linearGradient>
<linearGradient id="paint4_linear_972_1616" x1="188.963" y1="-53.7198" x2="188.963" y2="75.5134" gradientUnits="userSpaceOnUse">
<stop stop-opacity="0"/>
<stop offset="1" stop-color="#A155EE"/>
</linearGradient>
<linearGradient id="paint5_linear_972_1616" x1="188.963" y1="-53.7198" x2="188.963" y2="75.5134" gradientUnits="userSpaceOnUse">
<stop stop-opacity="0"/>
<stop offset="1" stop-color="#A155EE"/>
</linearGradient>
<linearGradient id="paint6_linear_972_1616" x1="188.963" y1="-53.7198" x2="188.963" y2="75.5134" gradientUnits="userSpaceOnUse">
<stop stop-opacity="0"/>
<stop offset="1" stop-color="#A155EE"/>
</linearGradient>
<linearGradient id="paint7_linear_972_1616" x1="188.963" y1="-53.7198" x2="188.963" y2="75.5134" gradientUnits="userSpaceOnUse">
<stop stop-opacity="0"/>
<stop offset="1" stop-color="#A155EE"/>
</linearGradient>
</defs>
</svg>
